<mxfile host="Electron" modified="2024-07-21T19:56:02.853Z" agent="Mozilla/5.0 (X11; Linux x86_64) AppleWebKit/537.36 (KHTML, like Gecko) draw.io/24.6.4 Chrome/124.0.6367.207 Electron/30.0.6 Safari/537.36" etag="I0_2RlAJ1zOgLVhq4mE8" version="24.6.4" type="device">
  <diagram name="Page-1" id="KuSUTu66BsWQi9UjC50S">
    <mxGraphModel dx="800" dy="389" grid="1" gridSize="10" guides="1" tooltips="1" connect="1" arrows="1" fold="1" page="1" pageScale="1" pageWidth="850" pageHeight="1100" math="1" shadow="0">
      <root>
        <mxCell id="0" />
        <mxCell id="1" parent="0" />
        <mxCell id="R_xdPRY3A-fTPdlqPRfr-1" value="" style="pointerEvents=1;verticalLabelPosition=bottom;shadow=0;dashed=0;align=center;html=1;verticalAlign=top;shape=mxgraph.electrical.resistors.resistor_2;" vertex="1" parent="1">
          <mxGeometry x="150" y="190" width="100" height="20" as="geometry" />
        </mxCell>
        <mxCell id="R_xdPRY3A-fTPdlqPRfr-2" value="" style="pointerEvents=1;verticalLabelPosition=bottom;shadow=0;dashed=0;align=center;html=1;verticalAlign=top;shape=mxgraph.electrical.signal_sources.source;aspect=fixed;points=[[0.5,0,0],[1,0.5,0],[0.5,1,0],[0,0.5,0]];elSignalType=ac;" vertex="1" parent="1">
          <mxGeometry x="80" y="225" width="60" height="60" as="geometry" />
        </mxCell>
        <mxCell id="R_xdPRY3A-fTPdlqPRfr-3" style="edgeStyle=orthogonalEdgeStyle;rounded=0;orthogonalLoop=1;jettySize=auto;html=1;exitX=0.5;exitY=0;exitDx=0;exitDy=0;exitPerimeter=0;entryX=0;entryY=0.5;entryDx=0;entryDy=0;entryPerimeter=0;endArrow=none;endFill=0;" edge="1" parent="1" source="R_xdPRY3A-fTPdlqPRfr-2" target="R_xdPRY3A-fTPdlqPRfr-1">
          <mxGeometry relative="1" as="geometry" />
        </mxCell>
        <mxCell id="R_xdPRY3A-fTPdlqPRfr-18" style="edgeStyle=orthogonalEdgeStyle;rounded=0;orthogonalLoop=1;jettySize=auto;html=1;exitX=0.5;exitY=1;exitDx=0;exitDy=0;exitPerimeter=0;entryX=0.5;entryY=0;entryDx=0;entryDy=0;endArrow=none;endFill=0;" edge="1" parent="1" target="R_xdPRY3A-fTPdlqPRfr-17">
          <mxGeometry relative="1" as="geometry">
            <mxPoint x="430" y="200" as="sourcePoint" />
            <Array as="points">
              <mxPoint x="785" y="200" />
            </Array>
          </mxGeometry>
        </mxCell>
        <mxCell id="R_xdPRY3A-fTPdlqPRfr-5" style="edgeStyle=orthogonalEdgeStyle;rounded=0;orthogonalLoop=1;jettySize=auto;html=1;exitX=1;exitY=0.5;exitDx=0;exitDy=0;exitPerimeter=0;endArrow=none;endFill=0;" edge="1" parent="1" source="R_xdPRY3A-fTPdlqPRfr-1">
          <mxGeometry relative="1" as="geometry">
            <mxPoint x="430" y="200" as="targetPoint" />
          </mxGeometry>
        </mxCell>
        <mxCell id="R_xdPRY3A-fTPdlqPRfr-9" value="$$R_g$$" style="text;html=1;align=center;verticalAlign=middle;whiteSpace=wrap;rounded=0;" vertex="1" parent="1">
          <mxGeometry x="170" y="160" width="60" height="30" as="geometry" />
        </mxCell>
        <mxCell id="R_xdPRY3A-fTPdlqPRfr-10" value="$$V_g$$" style="text;html=1;align=center;verticalAlign=middle;whiteSpace=wrap;rounded=0;" vertex="1" parent="1">
          <mxGeometry x="30" y="235" width="60" height="30" as="geometry" />
        </mxCell>
        <mxCell id="R_xdPRY3A-fTPdlqPRfr-11" style="edgeStyle=orthogonalEdgeStyle;rounded=0;orthogonalLoop=1;jettySize=auto;html=1;exitX=0.5;exitY=1;exitDx=0;exitDy=0;exitPerimeter=0;endArrow=none;endFill=0;" edge="1" parent="1" source="R_xdPRY3A-fTPdlqPRfr-2">
          <mxGeometry relative="1" as="geometry">
            <mxPoint x="420" y="310" as="targetPoint" />
            <Array as="points">
              <mxPoint x="110" y="310" />
              <mxPoint x="285" y="310" />
            </Array>
          </mxGeometry>
        </mxCell>
        <mxCell id="R_xdPRY3A-fTPdlqPRfr-12" value="" style="pointerEvents=1;verticalLabelPosition=bottom;shadow=0;dashed=0;align=center;html=1;verticalAlign=top;shape=mxgraph.electrical.resistors.resistor_2;rotation=-90;" vertex="1" parent="1">
          <mxGeometry x="530" y="240" width="100" height="20" as="geometry" />
        </mxCell>
        <mxCell id="R_xdPRY3A-fTPdlqPRfr-20" style="edgeStyle=orthogonalEdgeStyle;rounded=0;orthogonalLoop=1;jettySize=auto;html=1;exitX=0;exitY=0.5;exitDx=0;exitDy=0;exitPerimeter=0;endArrow=none;endFill=0;entryX=0;entryY=0.5;entryDx=0;entryDy=0;entryPerimeter=0;" edge="1" parent="1" source="R_xdPRY3A-fTPdlqPRfr-13" target="R_xdPRY3A-fTPdlqPRfr-12">
          <mxGeometry relative="1" as="geometry">
            <mxPoint x="680" y="310" as="targetPoint" />
            <Array as="points">
              <mxPoint x="680" y="310" />
              <mxPoint x="580" y="310" />
            </Array>
          </mxGeometry>
        </mxCell>
        <mxCell id="R_xdPRY3A-fTPdlqPRfr-13" value="" style="pointerEvents=1;verticalLabelPosition=bottom;shadow=0;dashed=0;align=center;html=1;verticalAlign=top;shape=mxgraph.electrical.capacitors.capacitor_1;rotation=-90;" vertex="1" parent="1">
          <mxGeometry x="630" y="220" width="100" height="60" as="geometry" />
        </mxCell>
        <mxCell id="R_xdPRY3A-fTPdlqPRfr-14" value="$$R_v$$" style="text;html=1;align=center;verticalAlign=middle;whiteSpace=wrap;rounded=0;" vertex="1" parent="1">
          <mxGeometry x="520" y="235" width="60" height="30" as="geometry" />
        </mxCell>
        <mxCell id="R_xdPRY3A-fTPdlqPRfr-15" value="$$C_v$$" style="text;html=1;align=center;verticalAlign=middle;whiteSpace=wrap;rounded=0;" vertex="1" parent="1">
          <mxGeometry x="600" y="235" width="60" height="30" as="geometry" />
        </mxCell>
        <mxCell id="R_xdPRY3A-fTPdlqPRfr-17" value="V" style="verticalLabelPosition=middle;shadow=0;dashed=0;align=center;html=1;verticalAlign=middle;strokeWidth=1;shape=ellipse;aspect=fixed;fontSize=50;" vertex="1" parent="1">
          <mxGeometry x="750" y="215" width="70" height="70" as="geometry" />
        </mxCell>
        <mxCell id="R_xdPRY3A-fTPdlqPRfr-19" style="edgeStyle=orthogonalEdgeStyle;rounded=0;orthogonalLoop=1;jettySize=auto;html=1;exitX=0.5;exitY=1;exitDx=0;exitDy=0;endArrow=none;endFill=0;" edge="1" parent="1" source="R_xdPRY3A-fTPdlqPRfr-17">
          <mxGeometry relative="1" as="geometry">
            <mxPoint x="415" y="310" as="targetPoint" />
            <Array as="points">
              <mxPoint x="785" y="310" />
              <mxPoint x="415" y="310" />
            </Array>
          </mxGeometry>
        </mxCell>
        <mxCell id="R_xdPRY3A-fTPdlqPRfr-23" style="edgeStyle=orthogonalEdgeStyle;rounded=0;orthogonalLoop=1;jettySize=auto;html=1;exitX=0;exitY=0.5;exitDx=0;exitDy=0;exitPerimeter=0;endArrow=none;endFill=0;" edge="1" parent="1" source="R_xdPRY3A-fTPdlqPRfr-21">
          <mxGeometry relative="1" as="geometry">
            <mxPoint x="360" y="310" as="targetPoint" />
          </mxGeometry>
        </mxCell>
        <mxCell id="R_xdPRY3A-fTPdlqPRfr-21" value="" style="pointerEvents=1;verticalLabelPosition=bottom;shadow=0;dashed=0;align=center;html=1;verticalAlign=top;shape=mxgraph.electrical.capacitors.capacitor_1;rotation=-90;" vertex="1" parent="1">
          <mxGeometry x="310" y="220" width="100" height="60" as="geometry" />
        </mxCell>
        <mxCell id="R_xdPRY3A-fTPdlqPRfr-22" value="$$C_c$$" style="text;html=1;align=center;verticalAlign=middle;whiteSpace=wrap;rounded=0;" vertex="1" parent="1">
          <mxGeometry x="280" y="235" width="60" height="30" as="geometry" />
        </mxCell>
      </root>
    </mxGraphModel>
  </diagram>
</mxfile>
